<svg xmlns="http://www.w3.org/2000/svg" xmlns:xlink="http://www.w3.org/1999/xlink" width="166" height="43" viewBox="0 0 166 43"><defs><style>.a{fill:none;}.b{fill:#ff2e2e;}.c{clip-path:url(#a);}</style><clipPath id="a"><path class="a" d="M0,0H42.8V43H0Z"/></clipPath></defs><g transform="translate(0 0)"><path class="b" d="M22.888,0l-3.93,17.584L14.776,0h-3.49L7.357,17.584,3.27,0H0L5.376,21H8.991L13.016,3.8,17.1,21h3.616L26,0Z" transform="translate(51 11)"/><path class="b" d="M7.5,16.221a7.137,7.137,0,0,1-5.651-2.35A8.738,8.738,0,0,1,0,8.11,8.384,8.384,0,0,1,2.117,2.23,7.316,7.316,0,0,1,7.534,0,6.95,6.95,0,0,1,12.79,2.154a8.794,8.794,0,0,1,2.024,6.752H2.849a5.074,5.074,0,0,0,1.309,3.609,4.485,4.485,0,0,0,3.28,1.32c2.244,0,3.632-.869,4.369-2.735l2.754.35A6.231,6.231,0,0,1,12.219,14.8,7.9,7.9,0,0,1,7.5,16.221ZM7.534,2.29A4.312,4.312,0,0,0,2.881,6.647h9.085A4.347,4.347,0,0,0,7.534,2.29Z" transform="translate(77.345 16.029)"/><path class="b" d="M7.407,21.5A5.4,5.4,0,0,1,2.69,19.21l-.126,1.908H0V0H2.69V7.792A5.5,5.5,0,0,1,7.724,5.279a5.8,5.8,0,0,1,4.629,2.163,9.309,9.309,0,0,1,1.828,5.98,8.921,8.921,0,0,1-1.9,5.923A6.224,6.224,0,0,1,7.407,21.5ZM7.027,7.633a4.009,4.009,0,0,0-3.122,1.38,6.639,6.639,0,0,0-1.341,4.409A6.509,6.509,0,0,0,3.87,17.8a4.044,4.044,0,0,0,3.157,1.348,3.761,3.761,0,0,0,3.209-1.515,7.024,7.024,0,0,0,1.1-4.21C11.333,9.689,9.8,7.633,7.027,7.633Z" transform="translate(94.406 10.75)"/><path class="b" d="M10.478,17.556,5.033,0H0V21.118H3.007V2.767L8.9,21.118H12.06L17.948,2.767V21.118h3.007V0H15.922Z" transform="translate(111.405 10.75)"/><path class="b" d="M7.5,16.221a7.137,7.137,0,0,1-5.651-2.35A8.738,8.738,0,0,1,0,8.11,8.384,8.384,0,0,1,2.117,2.23,7.316,7.316,0,0,1,7.534,0,6.95,6.95,0,0,1,12.79,2.154a8.794,8.794,0,0,1,2.024,6.752H2.849a5.074,5.074,0,0,0,1.309,3.609,4.485,4.485,0,0,0,3.28,1.32c2.245,0,3.633-.869,4.369-2.735l2.754.35A6.231,6.231,0,0,1,12.219,14.8,7.9,7.9,0,0,1,7.5,16.221ZM7.534,2.29A4.312,4.312,0,0,0,2.881,6.647h9.085A4.346,4.346,0,0,0,7.534,2.29Z" transform="translate(135.178 16.029)"/><path class="b" d="M6.457,21.5a5.8,5.8,0,0,1-4.629-2.163A9.309,9.309,0,0,1,0,13.358,8.921,8.921,0,0,1,1.9,7.434,6.225,6.225,0,0,1,6.774,5.279a5.4,5.4,0,0,1,4.716,2.29V0h2.691V21.118h-2.6l-.1-2.13A5.5,5.5,0,0,1,6.457,21.5Zm.7-13.867A3.76,3.76,0,0,0,3.945,9.148a7.026,7.026,0,0,0-1.1,4.21c0,3.733,1.529,5.789,4.3,5.789a4.009,4.009,0,0,0,3.122-1.38,6.639,6.639,0,0,0,1.341-4.409,6.509,6.509,0,0,0-1.306-4.377A4.044,4.044,0,0,0,7.154,7.633Z" transform="translate(151.819 10.75)"/><path class="a" d="M0,0H42.8V43H0Z"/><g class="c"><path class="b" d="M21.4,43A21.281,21.281,0,0,1,6.267,36.7a21.549,21.549,0,0,1,0-30.406A21.407,21.407,0,0,1,42.8,21.5,21.509,21.509,0,0,1,29.728,41.31,21.179,21.179,0,0,1,21.4,43ZM9.851,12.392a1.284,1.284,0,0,0-1.28,1.286V31.925a1.281,1.281,0,0,0,.79,1.189,1.3,1.3,0,0,0,.49.1,1.268,1.268,0,0,0,.906-.377l7.888-7.927,7.89,7.927a1.275,1.275,0,0,0,1.809,0,1.293,1.293,0,0,0,0-1.819l-8.795-8.836a1.293,1.293,0,0,0-1.809,0L11.13,28.82V13.678A1.284,1.284,0,0,0,9.851,12.392ZM31.666,14.18V29.526a1.28,1.28,0,1,0,2.561,0V11.075a1.287,1.287,0,0,0-1.283-1.287,1.259,1.259,0,0,0-.9.378l-7.89,7.927-7.888-7.927a1.284,1.284,0,0,0-1.811,1.82l8.792,8.835a1.3,1.3,0,0,0,1.811,0l6.608-6.639Z" transform="translate(0 0)"/></g></g></svg>